<svg id="visual" viewBox="0 0 1920 1080" width="1920" height="1080" xmlns="http://www.w3.org/2000/svg" xmlns:xlink="http://www.w3.org/1999/xlink" version="1.1"><g stroke-width="1" stroke-linejoin="bevel"><path d="M977 530L946 406L828 527Z" fill="#04502d" stroke="#04502d"></path><path d="M959 750L1096 583L977 530Z" fill="#044921" stroke="#044921"></path><path d="M977 530L1151 338L946 406Z" fill="#063b08" stroke="#063b08"></path><path d="M946 406L709 316L828 527Z" fill="#044c27" stroke="#044c27"></path><path d="M828 527L959 750L977 530Z" fill="#054215" stroke="#054215"></path><path d="M1096 583L1151 338L977 530Z" fill="#054215" stroke="#054215"></path><path d="M946 406L1008 140L709 316Z" fill="#085a3e" stroke="#085a3e"></path><path d="M959 750L1119 693L1096 583Z" fill="#073800" stroke="#073800"></path><path d="M1096 583L1365 418L1151 338Z" fill="#063b08" stroke="#063b08"></path><path d="M548 503L711 759L828 527Z" fill="#044921" stroke="#044921"></path><path d="M828 527L711 759L959 750Z" fill="#04461b" stroke="#04461b"></path><path d="M709 316L548 503L828 527Z" fill="#055332" stroke="#055332"></path><path d="M1151 338L1008 140L946 406Z" fill="#055332" stroke="#055332"></path><path d="M1365 418L1166 235L1151 338Z" fill="#055332" stroke="#055332"></path><path d="M1151 338L1166 235L1008 140Z" fill="#063b08" stroke="#063b08"></path><path d="M564 185L537 399L709 316Z" fill="#055332" stroke="#055332"></path><path d="M709 316L537 399L548 503Z" fill="#085a3e" stroke="#085a3e"></path><path d="M1008 140L726 143L709 316Z" fill="#073800" stroke="#073800"></path><path d="M548 503L631 774L711 759Z" fill="#073800" stroke="#073800"></path><path d="M737 901L996 892L959 750Z" fill="#085a3e" stroke="#085a3e"></path><path d="M737 901L959 750L711 759Z" fill="#044921" stroke="#044921"></path><path d="M959 750L996 892L1119 693Z" fill="#065738" stroke="#065738"></path><path d="M631 774L737 901L711 759Z" fill="#063b08" stroke="#063b08"></path><path d="M726 143L564 185L709 316Z" fill="#065738" stroke="#065738"></path><path d="M1396 541L1096 583L1387 657Z" fill="#065738" stroke="#065738"></path><path d="M1396 541L1365 418L1096 583Z" fill="#085a3e" stroke="#085a3e"></path><path d="M1152 0L932 0L1008 140Z" fill="#065738" stroke="#065738"></path><path d="M1008 140L932 0L726 143Z" fill="#04502d" stroke="#04502d"></path><path d="M726 143L609 0L564 185Z" fill="#065738" stroke="#065738"></path><path d="M1152 0L1008 140L1166 235Z" fill="#04461b" stroke="#04461b"></path><path d="M932 0L800 0L726 143Z" fill="#085a3e" stroke="#085a3e"></path><path d="M1387 657L1096 583L1119 693Z" fill="#065738" stroke="#065738"></path><path d="M1368 962L1387 657L1119 693Z" fill="#065738" stroke="#065738"></path><path d="M434 166L396 391L537 399Z" fill="#065738" stroke="#065738"></path><path d="M537 399L396 391L548 503Z" fill="#055332" stroke="#055332"></path><path d="M548 503L371 659L631 774Z" fill="#044921" stroke="#044921"></path><path d="M396 391L389 533L548 503Z" fill="#085a3e" stroke="#085a3e"></path><path d="M631 774L522 884L737 901Z" fill="#04461b" stroke="#04461b"></path><path d="M992 1080L1127 962L996 892Z" fill="#044c27" stroke="#044c27"></path><path d="M996 892L1127 962L1119 693Z" fill="#053f0f" stroke="#053f0f"></path><path d="M1353 0L1152 0L1166 235Z" fill="#054215" stroke="#054215"></path><path d="M371 659L522 884L631 774Z" fill="#04502d" stroke="#04502d"></path><path d="M774 1080L992 1080L996 892Z" fill="#073800" stroke="#073800"></path><path d="M242 570L371 659L389 533Z" fill="#085a3e" stroke="#085a3e"></path><path d="M389 533L371 659L548 503Z" fill="#044921" stroke="#044921"></path><path d="M800 0L609 0L726 143Z" fill="#054215" stroke="#054215"></path><path d="M564 185L434 166L537 399Z" fill="#055332" stroke="#055332"></path><path d="M609 0L434 166L564 185Z" fill="#044921" stroke="#044921"></path><path d="M1365 418L1387 185L1166 235Z" fill="#053f0f" stroke="#053f0f"></path><path d="M1548 306L1387 185L1365 418Z" fill="#073800" stroke="#073800"></path><path d="M774 1080L996 892L737 901Z" fill="#073800" stroke="#073800"></path><path d="M1368 962L1482 672L1387 657Z" fill="#04502d" stroke="#04502d"></path><path d="M1387 657L1482 672L1396 541Z" fill="#053f0f" stroke="#053f0f"></path><path d="M1586 527L1548 306L1365 418Z" fill="#085a3e" stroke="#085a3e"></path><path d="M1368 962L1119 693L1127 962Z" fill="#065738" stroke="#065738"></path><path d="M534 1080L774 1080L737 901Z" fill="#073800" stroke="#073800"></path><path d="M992 1080L1109 1080L1127 962Z" fill="#054215" stroke="#054215"></path><path d="M1532 118L1353 0L1387 185Z" fill="#054215" stroke="#054215"></path><path d="M1387 185L1353 0L1166 235Z" fill="#04461b" stroke="#04461b"></path><path d="M396 391L242 570L389 533Z" fill="#044921" stroke="#044921"></path><path d="M371 659L371 900L522 884Z" fill="#044921" stroke="#044921"></path><path d="M204 370L242 570L396 391Z" fill="#044921" stroke="#044921"></path><path d="M1350 1080L1368 962L1127 962Z" fill="#053f0f" stroke="#053f0f"></path><path d="M1586 527L1365 418L1396 541Z" fill="#04502d" stroke="#04502d"></path><path d="M231 768L371 900L371 659Z" fill="#04461b" stroke="#04461b"></path><path d="M522 884L534 1080L737 901Z" fill="#063b08" stroke="#063b08"></path><path d="M1482 672L1586 527L1396 541Z" fill="#044c27" stroke="#044c27"></path><path d="M1693 503L1586 527L1740 701Z" fill="#053f0f" stroke="#053f0f"></path><path d="M384 1080L534 1080L522 884Z" fill="#065738" stroke="#065738"></path><path d="M144 210L204 370L434 166Z" fill="#053f0f" stroke="#053f0f"></path><path d="M434 166L204 370L396 391Z" fill="#053f0f" stroke="#053f0f"></path><path d="M1548 306L1532 118L1387 185Z" fill="#053f0f" stroke="#053f0f"></path><path d="M1721 122L1532 118L1548 306Z" fill="#044921" stroke="#044921"></path><path d="M242 570L231 768L371 659Z" fill="#065738" stroke="#065738"></path><path d="M371 900L384 1080L522 884Z" fill="#085a3e" stroke="#085a3e"></path><path d="M0 675L231 768L242 570Z" fill="#044c27" stroke="#044c27"></path><path d="M1109 1080L1350 1080L1127 962Z" fill="#055332" stroke="#055332"></path><path d="M1368 962L1548 891L1482 672Z" fill="#073800" stroke="#073800"></path><path d="M609 0L324 0L434 166Z" fill="#04502d" stroke="#04502d"></path><path d="M1556 1080L1548 891L1368 962Z" fill="#054215" stroke="#054215"></path><path d="M1532 118L1515 0L1353 0Z" fill="#065738" stroke="#065738"></path><path d="M1693 503L1684 364L1586 527Z" fill="#044921" stroke="#044921"></path><path d="M1586 527L1684 364L1548 306Z" fill="#044c27" stroke="#044c27"></path><path d="M1532 118L1674 0L1515 0Z" fill="#065738" stroke="#065738"></path><path d="M1740 701L1586 527L1482 672Z" fill="#085a3e" stroke="#085a3e"></path><path d="M248 945L384 1080L371 900Z" fill="#065738" stroke="#065738"></path><path d="M231 768L248 945L371 900Z" fill="#085a3e" stroke="#085a3e"></path><path d="M324 0L144 210L434 166Z" fill="#055332" stroke="#055332"></path><path d="M204 370L0 521L242 570Z" fill="#04461b" stroke="#04461b"></path><path d="M231 768L0 910L248 945Z" fill="#044921" stroke="#044921"></path><path d="M324 0L203 0L144 210Z" fill="#065738" stroke="#065738"></path><path d="M1548 891L1740 701L1482 672Z" fill="#054215" stroke="#054215"></path><path d="M1920 323L1721 122L1684 364Z" fill="#063b08" stroke="#063b08"></path><path d="M1350 1080L1556 1080L1368 962Z" fill="#053f0f" stroke="#053f0f"></path><path d="M1548 891L1679 911L1740 701Z" fill="#04502d" stroke="#04502d"></path><path d="M1556 1080L1679 911L1548 891Z" fill="#054215" stroke="#054215"></path><path d="M1920 323L1684 364L1693 503Z" fill="#04502d" stroke="#04502d"></path><path d="M1684 364L1721 122L1548 306Z" fill="#053f0f" stroke="#053f0f"></path><path d="M0 420L204 370L144 210Z" fill="#044c27" stroke="#044c27"></path><path d="M0 420L0 521L204 370Z" fill="#044c27" stroke="#044c27"></path><path d="M0 135L0 420L144 210Z" fill="#053f0f" stroke="#053f0f"></path><path d="M1721 122L1674 0L1532 118Z" fill="#044921" stroke="#044921"></path><path d="M0 521L0 675L242 570Z" fill="#054215" stroke="#054215"></path><path d="M248 945L159 1080L384 1080Z" fill="#04461b" stroke="#04461b"></path><path d="M0 910L159 1080L248 945Z" fill="#044c27" stroke="#044c27"></path><path d="M203 0L0 135L144 210Z" fill="#054215" stroke="#054215"></path><path d="M0 675L0 910L231 768Z" fill="#073800" stroke="#073800"></path><path d="M1920 702L1920 592L1740 701Z" fill="#04502d" stroke="#04502d"></path><path d="M1740 701L1920 592L1693 503Z" fill="#044c27" stroke="#044c27"></path><path d="M1721 122L1920 0L1674 0Z" fill="#085a3e" stroke="#085a3e"></path><path d="M1920 702L1740 701L1920 876Z" fill="#04461b" stroke="#04461b"></path><path d="M203 0L0 0L0 135Z" fill="#073800" stroke="#073800"></path><path d="M1920 592L1920 323L1693 503Z" fill="#055332" stroke="#055332"></path><path d="M1920 876L1740 701L1679 911Z" fill="#044921" stroke="#044921"></path><path d="M1556 1080L1768 1080L1679 911Z" fill="#04461b" stroke="#04461b"></path><path d="M1920 323L1920 144L1721 122Z" fill="#065738" stroke="#065738"></path><path d="M0 910L0 1080L159 1080Z" fill="#073800" stroke="#073800"></path><path d="M1768 1080L1920 876L1679 911Z" fill="#085a3e" stroke="#085a3e"></path><path d="M1920 144L1920 0L1721 122Z" fill="#053f0f" stroke="#053f0f"></path><path d="M1768 1080L1920 1080L1920 876Z" fill="#054215" stroke="#054215"></path></g></svg>